HIERARCHY
ROOT Hips
{
	OFFSET 0.000000 0.000000 0.000000
	CHANNELS 6 Xposition Yposition Zposition Zrotation Yrotation Xrotation 
	JOINT LHipJoint
	{
		OFFSET 0.000000 0.000000 0.000000
		CHANNELS 3 Zrotation Yrotation Xrotation
		JOINT LeftUpLeg
		{
			OFFSET 1.363060 -1.794630 0.839290
			CHANNELS 3 Zrotation Yrotation Xrotation
			JOINT LeftLeg
			{
				OFFSET 2.448110 -6.726130 0.000000
				CHANNELS 3 Zrotation Yrotation Xrotation
				JOINT LeftFoot
				{
					OFFSET 2.562200 -7.039590 0.000000
					CHANNELS 3 Zrotation Yrotation Xrotation
					JOINT LeftToeBase
					{
						OFFSET 0.157640 -0.433110 2.322550
						CHANNELS 3 Zrotation Yrotation Xrotation
						End Site
						{
							OFFSET 0.000000 0.000000 0.000000
						}
					}
				}
			}
		}
	}
	JOINT RHipJoint
	{
		OFFSET 0.000000 0.000000 0.000000
		CHANNELS 3 Zrotation Yrotation Xrotation
		JOINT RightUpLeg
		{
			OFFSET -1.305520 -1.794630 0.839290
			CHANNELS 3 Zrotation Yrotation Xrotation
			JOINT RightLeg
			{
				OFFSET -2.542530 -6.985550 0.000000
				CHANNELS 3 Zrotation Yrotation Xrotation
				JOINT RightFoot
				{
					OFFSET -2.568260 -7.056230 0.000000
					CHANNELS 3 Zrotation Yrotation Xrotation
					JOINT RightToeBase
					{
						OFFSET -0.164730 -0.452590 2.363150
						CHANNELS 3 Zrotation Yrotation Xrotation
						End Site
						{
							OFFSET 0.000000 0.000000 0.000000
						}
					}
				}
			}
		}
	}
}
MOTION
Frames: 30
Frame Time: 0.008333
-0.151717 17.260176 -0.683111 176.842690 -86.265827 -163.863702 -11.156456 2.004668 2.277550 -5.781975 15.359882 -18.150218 -3.025046 -1.779114 0.185836 0.395003 1.197777 -6.584395 -179.995000 -0.000000 -96.232800 8.964362 -2.244847 3.443979 7.713251 -2.622426 -18.673746 2.459294 0.932136 8.283813 -1.238988 -6.099894 -2.921453 -1.159099 0.000000 -62.175400
-0.144737 17.258647 -0.702066 176.795858 -86.167884 -163.799125 -11.165974 1.990627 2.226411 -5.750942 15.529310 -18.163495 -3.033087 -1.771592 0.123524 0.381635 1.139038 -6.444281 -179.987600 -0.000001 -96.175000 8.948188 -2.228676 3.474729 7.737590 -2.317406 -18.783905 2.433142 0.910882 8.546275 -1.283365 -6.265675 -3.088889 -1.159799 0.000000 -61.999300
-0.137016 17.257016 -0.721422 176.662378 -86.082041 -163.647896 -11.175137 1.973610 2.171384 -5.722535 15.696325 -18.185695 -3.043305 -1.762997 0.082696 0.366351 1.053957 -6.331417 -179.982400 0.000000 -96.155400 8.931492 -2.209730 3.502115 7.757077 -2.007061 -18.892522 2.404488 0.888701 8.817929 -1.331838 -6.448911 -3.263571 -1.160800 -0.000001 -61.817100
-0.128629 17.255297 -0.741185 176.452334 -86.007063 -163.420535 -11.183736 1.953970 2.114440 -5.694883 15.854148 -18.213654 -3.054766 -1.753847 0.061642 0.350403 0.950811 -6.251325 -179.979700 -0.000000 -96.195900 8.914431 -2.188246 3.525723 7.772919 -1.696245 -19.000743 2.374005 0.865607 9.098509 -1.383289 -6.644181 -3.443802 -1.161700 -0.000000 -61.630401
-0.119733 17.253503 -0.761387 176.167385 -85.941783 -163.118144 -11.191593 1.932451 2.058636 -5.666639 15.991710 -18.243094 -3.065561 -1.744884 0.056758 0.336607 0.851562 -6.207591 -179.979000 0.000001 -96.249200 8.897148 -2.164733 3.545469 7.786171 -1.390817 -19.111488 2.342574 0.841621 9.388036 -1.436271 -6.844208 -3.628367 -1.161300 -0.000001 -61.444601
-0.110583 17.251623 -0.782041 175.817648 -85.883738 -162.749069 -11.198867 1.909935 2.005558 -5.636756 16.106421 -18.272075 -3.074654 -1.736343 0.063905 0.326245 0.769608 -6.193299 -179.979600 -0.000001 -96.308500 8.879706 -2.139932 3.562254 7.797834 -1.092626 -19.227157 2.310818 0.816825 9.686487 -1.489819 -7.044026 -3.816852 -1.159200 -0.000001 -61.260500
-0.101221 17.249674 -0.803184 175.432630 -85.829469 -162.343257 -11.205611 1.886962 1.956653 -5.601817 16.193369 -18.295749 -3.080620 -1.728379 0.075683 0.320286 0.716642 -6.198777 -179.980900 0.000000 -96.383199 8.862123 -2.114150 3.576860 7.809637 -0.799771 -19.349045 2.279039 0.791104 9.994589 -1.543531 -7.241612 -4.009023 -1.155100 -0.000000 -61.072500
-0.091864 17.247600 -0.824856 175.018984 -85.776798 -161.906592 -11.212110 1.864745 1.912720 -5.563182 16.255724 -18.314666 -3.082982 -1.720887 0.087751 0.319275 0.702883 -6.208264 -179.981800 0.000000 -96.419701 8.844520 -2.088384 3.590887 7.822147 -0.513472 -19.480412 2.247802 0.764522 10.312533 -1.596488 -7.432171 -4.204814 -1.148300 -0.000001 -60.886499
-0.082587 17.245397 -0.847093 174.595909 -85.722366 -161.457486 -11.218394 1.843616 1.874575 -5.519585 16.291357 -18.326562 -3.080664 -1.714049 0.091752 0.324064 0.739835 -6.208852 -179.981500 -0.000000 -96.397800 8.826870 -2.062914 3.605923 7.835899 -0.228366 -19.623593 2.216962 0.736937 10.641947 -1.649057 -7.616935 -4.405636 -1.138901 -0.000000 -60.692700
-0.073685 17.243024 -0.869916 174.182488 -85.663826 -161.013424 -11.224847 1.824544 1.841262 -5.472520 16.312357 -18.334118 -3.074922 -1.707449 0.084700 0.332516 0.815775 -6.183070 -179.979400 -0.000000 -96.316800 8.809332 -2.038691 3.623668 7.851522 0.056765 -19.779443 2.186756 0.708435 10.983199 -1.700861 -7.793894 -4.611915 -1.126600 0.000000 -60.494800
-0.065169 17.240420 -0.893371 173.799531 -85.598699 -160.597333 -11.231711 1.807734 1.810777 -5.422610 16.332435 -18.338865 -3.067314 -1.700694 0.063724 0.342020 0.913120 -6.119124 -179.974800 0.000000 -96.216200 8.791932 -2.015970 3.645325 7.869652 0.345843 -19.946875 2.157060 0.679029 11.336536 -1.752111 -7.963941 -4.824604 -1.111400 -0.000001 -60.289901
-0.057142 17.237576 -0.917521 173.421956 -85.527446 -160.181904 -11.238664 1.793171 1.783437 -5.375221 16.352421 -18.346216 -3.058198 -1.694110 0.029245 0.353070 1.036720 -6.014186 -179.967400 -0.000000 -96.020000 8.774797 -1.995234 3.672898 7.887634 0.642437 -20.130455 2.127348 0.648523 11.704501 -1.803549 -8.129665 -5.045653 -1.093100 0.000000 -60.070900
-0.049487 17.234470 -0.942403 173.059797 -85.448415 -159.782334 -11.245822 1.780469 1.756235 -5.330547 16.388011 -18.356023 -3.050209 -1.687432 -0.016680 0.361765 1.153996 -5.870507 -179.957400 0.000001 -95.758000 8.758122 -1.976453 3.705726 7.905743 0.946044 -20.324563 2.097538 0.616842 12.086474 -1.854984 -8.290587 -5.275047 -1.071800 -0.000000 -59.841700
-0.042331 17.231105 -0.968035 172.703094 -85.361953 -159.389581 -11.253091 1.769201 1.726509 -5.292628 16.454739 -18.374043 -3.046082 -1.680533 -0.066559 0.365502 1.241208 -5.696269 -179.945800 0.000000 -95.508800 8.742035 -1.959888 3.744399 7.922597 1.257753 -20.526870 2.067286 0.584047 12.482080 -1.906739 -8.448381 -5.513046 -1.047401 0.000000 -59.600800
-0.035607 17.227486 -0.994510 172.340554 -85.268492 -158.995329 -11.260214 1.758593 1.692203 -5.262836 16.561044 -18.401863 -3.047795 -1.673444 -0.112331 0.362354 1.277626 -5.507243 -179.934400 0.000000 -95.318200 8.726750 -1.945361 3.788157 7.936785 1.576760 -20.733213 2.036260 0.550061 12.890993 -1.958966 -8.604160 -5.759604 -1.019900 0.000000 -59.348900
-0.029283 17.223603 -1.021864 171.938314 -85.169159 -158.567815 -11.266548 1.747854 1.653316 -5.242414 16.701123 -18.437115 -3.055385 -1.666747 -0.146199 0.353429 1.264902 -5.326447 -179.924800 -0.000000 -95.150000 8.712685 -1.932656 3.835589 7.945757 1.899944 -20.940333 2.004152 0.514691 13.312519 -2.011624 -8.758043 -6.014308 -0.989300 -0.000000 -59.088400
-0.023214 17.219534 -1.050145 171.488730 -85.064356 -158.103838 -11.271639 1.736218 1.608530 -5.230556 16.875687 -18.477576 -3.069285 -1.660406 -0.158581 0.338941 1.197889 -5.174733 -179.918900 0.000000 -95.050100 8.700176 -1.921274 3.884824 7.948638 2.224876 -21.142193 1.970795 0.477821 13.745377 -2.064479 -8.909846 -6.276001 -0.955600 -0.000000 -58.822100
-0.017481 17.215271 -1.079349 170.995460 -84.953842 -157.608659 -11.275117 1.723366 1.557815 -5.223975 17.077997 -18.517485 -3.088397 -1.654467 -0.141583 0.321041 1.087421 -5.072440 -179.917499 -0.000000 -95.022300 8.689621 -1.910780 3.933631 7.944975 2.548121 -21.332092 1.936196 0.439525 14.186932 -2.117139 -9.059038 -6.542780 -0.919000 0.000000 -58.556900
-0.011843 17.210854 -1.109549 170.445292 -84.837221 -157.071896 -11.276419 1.708816 1.502240 -5.218913 17.292920 -18.551490 -3.110708 -1.648668 -0.090188 0.302031 0.949749 -5.027458 -179.920400 -0.000000 -95.083901 8.681391 -1.900388 3.980633 7.933357 2.870390 -21.507964 1.899979 0.399484 14.637277 -2.169889 -9.207315 -6.814501 -0.879500 -0.000000 -58.285299
-0.006429 17.206255 -1.140638 169.875839 -84.713036 -156.532208 -11.275683 1.693052 1.442528 -5.208284 17.510358 -18.570579 -3.133441 -1.642541 -0.000287 0.285541 0.811842 -5.049138 -179.926800 0.000001 -95.215000 8.675570 -1.889684 4.023045 7.916846 3.187116 -21.661731 1.862838 0.358015 15.092151 -2.221577 -9.351257 -7.087932 -0.837500 0.000001 -58.022500
-0.001069 17.201467 -1.172585 169.307720 -84.578654 -156.012868 -11.272994 1.676376 1.380382 -5.185078 17.712616 -18.564920 -3.153009 -1.635492 0.124757 0.274917 0.704280 -5.129960 -179.934900 0.000000 -95.388500 8.672190 -1.877780 4.059310 7.896347 3.499765 -21.790620 1.824856 0.314932 15.551233 -2.272023 -9.490693 -7.362628 -0.792800 0.000000 -57.765100
0.004255 17.196454 -1.205291 168.768165 -84.433245 -155.541015 -11.268698 1.659523 1.317965 -5.143230 17.884427 -18.529501 -3.166061 -1.626662 0.284093 0.273434 0.658315 -5.258890 -179.943300 0.000000 -95.536600 8.671047 -1.864399 4.088092 7.874748 3.806128 -21.892612 1.786725 0.270443 16.011694 -2.320395 -9.622985 -7.636244 -0.745800 -0.000000 -57.519000
0.009355 17.191189 -1.238640 168.295097 -84.274632 -155.151584 -11.263714 1.643763 1.256798 -5.077870 18.019702 -18.462658 -3.170599 -1.614907 0.473726 0.282072 0.689743 -5.412307 -179.951000 0.000000 -95.646299 8.671536 -1.849762 4.109586 7.856053 4.106830 -21.967640 1.749210 0.224935 16.471541 -2.366060 -9.745883 -7.907503 -0.696801 0.000000 -57.288000
0.014430 17.185608 -1.272520 167.908304 -84.100327 -154.867063 -11.258579 1.629399 1.198016 -4.984977 18.106911 -18.356102 -3.163707 -1.599829 0.682044 0.302973 0.822631 -5.570758 -179.957000 0.000000 -95.698600 8.673385 -1.833250 4.121896 7.842432 4.399686 -22.013514 1.713149 0.178264 16.929925 -2.407856 -9.854141 -8.177086 -0.645300 0.000000 -57.061500
0.019145 17.179675 -1.306785 167.626773 -83.910909 -154.700716 -11.254097 1.617834 1.143992 -4.865569 18.146163 -18.219378 -3.145444 -1.580541 0.907724 0.334888 1.053373 -5.708607 -179.961000 -0.000000 -95.608600 8.675822 -1.816049 4.127160 7.837742 4.682633 -22.036060 1.679598 0.131189 17.383427 -2.444904 -9.944198 -8.442345 -0.591800 0.000000 -56.852400
0.023421 17.173394 -1.341340 167.458513 -83.706447 -154.659044 -11.250871 1.609446 1.095028 -4.722167 18.144336 -18.058568 -3.116718 -1.556826 1.144848 0.375886 1.369981 -5.807946 -179.962101 -0.000000 -95.440800 8.678304 -1.798803 4.126140 7.844540 4.952529 -22.037756 1.649586 0.084115 17.829810 -2.476065 -10.010550 -8.703317 -0.536600 -0.000001 -56.658100
0.027063 17.166753 -1.376100 167.388663 -83.488133 -154.723505 -11.248839 1.604470 1.052971 -4.559352 18.100348 -17.880125 -3.078399 -1.529230 1.390122 0.424700 1.762069 -5.862903 -179.959900 -0.000000 -95.086600 8.680719 -1.782400 4.119566 7.863597 5.203421 -22.023067 1.624054 0.037482 18.265989 -2.500077 -10.047028 -8.959307 -0.479700 -0.000000 -56.478100
0.029916 17.159810 -1.410976 167.409936 -83.257534 -154.885731 -11.248202 1.602674 1.017085 -4.383593 18.032896 -17.698414 -3.034261 -1.498035 1.646551 0.477000 2.192146 -5.874311 -179.954100 -0.000000 -94.662500 8.682632 -1.767915 4.109193 7.896281 5.430819 -21.995286 1.603839 -0.008011 18.688356 -2.515952 -10.048809 -9.209608 -0.421601 0.000000 -56.313500
0.031797 17.152641 -1.445911 167.502963 -83.016733 -155.123746 -11.248690 1.603488 0.987223 -4.201180 17.954214 -17.524935 -2.987689 -1.464175 1.919181 0.529590 2.628904 -5.857057 -179.945600 0.000001 -94.194300 8.683904 -1.756309 4.096269 7.942660 5.629485 -21.957339 1.589549 -0.051642 19.092380 -2.522964 -10.012129 -9.453529 -0.362800 0.000000 -56.164200
0.032393 17.145341 -1.480879 167.641992 -82.768012 -155.407935 -11.249612 1.606269 0.964537 -4.017444 17.866415 -17.366931 -2.941045 -1.429136 2.214420 0.581074 3.052563 -5.838660 -179.936500 0.000001 -93.685200 8.684763 -1.748341 4.081510 8.000628 5.793896 -21.911464 1.581496 -0.092828 19.474431 -2.520414 -9.933245 -9.690586 -0.303800 -0.000000 -56.030800
